<?xml version="1.0" encoding="utf-8"?>
<!-- Generator: Adobe Illustrator 18.1.1, SVG Export Plug-In . SVG Version: 6.00 Build 0)  -->
<svg version="1.1" class="mainIcon" id="facebook" xmlns="http://www.w3.org/2000/svg" xmlns:xlink="http://www.w3.org/1999/xlink" x="0px" y="0px"
	 viewBox="0 0 612 500" enable-background="new 0 0 612 500" xml:space="preserve">
<g>
	<path fill="none" stroke="#000000" stroke-width="4" stroke-miterlimit="10" d="M306.7,475.2V401h-23.1v-33.5h23.1
		c0,0-4.3-59.6,26.1-59.6h38.3v31c0,0-19.5-4.9-25.5,2.4c-6.1,7.3-4.3,26.1-4.3,26.1h29.8l-5.5,32.8h-27.3V475h-31.6V475.2z"/>
	<path fill="none" stroke="#00080A" stroke-width="4" stroke-miterlimit="10" d="M366.3,475.2H246.5c-22.2,0-40.1-17.9-40.1-40.1
		V315.3c0-22.2,17.9-40.1,40.1-40.1h119.8c22.2,0,40.1,17.9,40.1,40.1v119.8C406.4,457.2,388.4,475.2,366.3,475.2z"/>
</g>
</svg>
