<?xml version="1.0" encoding="utf-8"?>
<!-- Generator: Adobe Illustrator 18.1.1, SVG Export Plug-In . SVG Version: 6.00 Build 0)  -->
<svg version="1.1" class="mainIcon" id="google plus" xmlns="http://www.w3.org/2000/svg" xmlns:xlink="http://www.w3.org/1999/xlink" x="0px"
	 y="0px" viewBox="0 0 612 500" enable-background="new 0 0 612 500" xml:space="preserve">
<path fill="none" stroke="#000000" stroke-width="4" d="M331.4,424.9c0.4-3.4,0.9-12.7-1.9-24.9h-59.4v26.3h35.3
	c-5.1,15.1-19.3,26-36.2,26c-21.1,0-38.2-17.1-38.2-38.2s17.1-38.2,38.2-38.2c9.4,0,18,3.4,24.6,9.1l17.2-18
	c-11.1-9.9-25.7-15.9-41.8-15.9c-34.9,0-63,28.3-63,63s28.3,63,63,63c30.7,0,56.2-21.9,61.8-51l0,0c0,0,0-0.2,0.1-0.5
	C331.3,425.5,331.4,425.3,331.4,424.9L331.4,424.9L331.4,424.9z"/>
<polygon fill="none" stroke="#000000" stroke-width="4" points="383.6,401.7 383.6,379.2 367.4,379.2 367.4,401.7 344.8,401.7 
	344.8,417.9 367.4,417.9 367.4,440.5 383.6,440.5 383.6,417.9 406.2,417.9 406.2,401.7 "/>
</svg>
