<?xml version="1.0" encoding="utf-8"?>
<!-- Generator: Adobe Illustrator 18.1.1, SVG Export Plug-In . SVG Version: 6.00 Build 0)  -->
<svg version="1.1" class="mainIcon" id="instagram" xmlns="http://www.w3.org/2000/svg" xmlns:xlink="http://www.w3.org/1999/xlink" x="0px" y="0px"
	 viewBox="0 0 612 500" enable-background="new 0 0 612 500" xml:space="preserve">
<g>
	<path fill="none" stroke="#000000" stroke-width="4" d="M399.3,475.1H213.4c-3.9,0-7.1-3.2-7.1-7.1V282.1c0-3.9,3.2-7.1,7.1-7.1
		h185.9c3.9,0,7.1,3.2,7.1,7.1V468C406.3,471.9,403.2,475.1,399.3,475.1z"/>
	<circle fill="none" stroke="#000000" stroke-width="4" cx="306.3" cy="375.1" r="47"/>
	<circle fill="none" stroke="#000000" stroke-width="4" stroke-miterlimit="10" cx="365.3" cy="316.1" r="12"/>
	<circle fill="none" stroke="#000000" stroke-width="4" cx="306.3" cy="375.1" r="39.4"/>
	<path fill="none" stroke="#000000" stroke-width="4" d="M392.2,468H220.5c-3.9,0-7.1-3.2-7.1-7.1V289.2c0-3.9,3.2-7.1,7.1-7.1
		h171.7c3.9,0,7.1,3.2,7.1,7.1v171.7C399.3,464.9,396.1,468,392.2,468z"/>
</g>
</svg>
