<?xml version="1.0" encoding="utf-8"?>
<!-- Generator: Adobe Illustrator 18.1.1, SVG Export Plug-In . SVG Version: 6.00 Build 0)  -->
<svg version="1.1" class="mainIcon" id="skype" xmlns="http://www.w3.org/2000/svg" xmlns:xlink="http://www.w3.org/1999/xlink" x="0px" y="0px"
	 viewBox="0 0 612 500" enable-background="new 0 0 612 500" xml:space="preserve">
<g>
	<path fill="none" stroke="#000000" stroke-width="4" d="M270.8,405.5c3.7-1.3,7.8-0.2,10.2,2.7c3.3,4,6.6,6.9,9.8,8.7
		c4.5,2.6,9.7,3.9,15.9,3.9c7.3,0,13-1.7,17.1-5s6.1-7.3,6.1-11.8c0-4-1.6-7.5-4.8-10.6c-3.3-3-10.6-6-22-8.7
		c-15.5-3.8-26.6-8.4-33.3-13.8c-8.3-6.8-12.5-15.3-12.5-25.5c0-10.9,4.2-19.8,12.5-26.9s19.8-10.7,34.3-10.7
		c8.3,0,15.6,1.3,22.1,3.8c6.5,2.6,12,5.8,16.5,9.8c0.6,0.5,1.1,1,1.6,1.6c4.1,4.2,2.6,11-3.1,13.1l-6.7,2.5
		c-3.5,1.3-7.5,0.4-10-2.3c-2.6-2.8-5.4-5-8.1-6.6c-4.1-2.4-8.6-3.6-13.6-3.6c-6.1,0-11.1,1.6-14.7,4.7c-3.7,3.2-5.5,7-5.5,11.5
		c0,3.6,1.5,6.7,4.6,9.3c3,2.6,10.4,5.2,22.4,8c12,2.8,21,6,27.2,9.6c6.2,3.7,10.8,8.4,13.9,14.3c3.1,5.9,4.6,11.8,4.6,18
		c0,6.5-2,13.1-5.9,19.7s-9.8,11.6-17.6,15.2c-7.8,3.6-16.7,5.3-26.8,5.3c-9.6,0-17.9-1.5-24.9-4.4c-7.1-2.9-13-6.9-17.9-11.9
		c-1.3-1.4-2.7-3-4.1-4.8c-3.2-4.3-1.1-10.2,4.2-12L270.8,405.5z"/>
	<circle fill="none" stroke="#000000" stroke-width="4" cx="306" cy="374.8" r="100"/>
</g>
</svg>
