<?xml version="1.0" encoding="utf-8"?>
<!-- Generator: Adobe Illustrator 18.1.1, SVG Export Plug-In . SVG Version: 6.00 Build 0)  -->
<svg version="1.1" class="mainIcon" id="twitter" xmlns="http://www.w3.org/2000/svg" xmlns:xlink="http://www.w3.org/1999/xlink" x="0px" y="0px"
	 viewBox="0 0 612 500" enable-background="new 0 0 612 500" xml:space="preserve">
<g>
	<rect x="206" y="270.4" fill="none" stroke="#000000" stroke-width="4" stroke-miterlimit="10" width="200" height="199.2"/>
	<path fill="none" stroke="#000000" stroke-width="4" stroke-miterlimit="10" d="M248,407.8c0,0,22.4,0.8,33.7-10.3
		c0,0-16.9-0.8-21.6-17.2c0,0,5.8,2.2,9.4,0c0,0-21.3-9.1-18.6-24.3l9.9,3c0,0-15.8-15.8-6.4-31.3c0,0,29.6,27.1,49.3,23.8
		c0,0-0.7-13.7,7.5-22.4c6.6-7,20.3-11.1,34,0.3c0,0,13-2.8,16-4.7c0,0-0.6,6.7-8.6,11.6c0,0,10.3-1.1,11.1-2.2c0,0-5,8.3-11.1,11.9
		c0,0,5.8,36-32.3,61.7C320.5,407.8,291.5,429.4,248,407.8z"/>
</g>
</svg>
