<?xml version="1.0" encoding="utf-8"?>
<!-- Generator: Adobe Illustrator 18.1.1, SVG Export Plug-In . SVG Version: 6.00 Build 0)  -->
<svg version="1.1" class="mainIcon" id="whatsapp" xmlns="http://www.w3.org/2000/svg" xmlns:xlink="http://www.w3.org/1999/xlink" x="0px" y="0px"
	 viewBox="0 0 612 500" enable-background="new 0 0 612 500" xml:space="preserve">
<g>
	<path fill="none" stroke="#000000" stroke-width="4" stroke-miterlimit="10" d="M311.7,438c53.3,0,96.3-44.5,93.8-98.4
		c-2.2-47.8-41.5-87.2-89.3-89.3c-53.9-2.5-98.4,40.5-98.4,93.8c0,15.5,3.9,30.2,10.6,43.1l-21.9,65.6l59.2-19
		c4.3-1.4,8.9-1.8,13.3-1L311.7,438z"/>
	<path fill="none" stroke="#000000" stroke-width="4" stroke-miterlimit="10" d="M288.6,332.2l10.5-15.1c0,0-4.7-25.5-10.5-26.5
		c0,0-32.2,1-20.7,41.6c0,0,17,52,72.8,58.6c0,0,30.3,2.9,26.5-25.5l-25.5-11.4l-10.5,13.2C331.1,367.2,307.9,363.1,288.6,332.2z"/>
</g>
</svg>
