<?xml version="1.0" encoding="utf-8"?>
<!-- Generator: Adobe Illustrator 18.1.1, SVG Export Plug-In . SVG Version: 6.00 Build 0)  -->
<svg version="1.1" class="mainIcon" id="youtube" xmlns="http://www.w3.org/2000/svg" xmlns:xlink="http://www.w3.org/1999/xlink" x="0px" y="0px"
	 viewBox="0 0 612 500" enable-background="new 0 0 612 500" xml:space="preserve">
<g>
	<g enable-background="new    ">
		<path d="M268,317.3v-33.5l-20-45.7h8.4l10.3,23.8c1.9,4.4,3.7,9,5.2,13.3c1.5-4.2,3.4-8.8,5.7-14l10.1-23.2h8l-20.8,45.7v33.6H268
			L268,317.3z"/>
		<path d="M291.9,288.6c0-10.5,1.9-18.5,5.8-23.6c3.3-4.2,7.2-6.3,11.9-6.3c5.2,0,9.4,2.5,12.7,7.7c3.3,5.2,4.9,12.3,4.9,21.4
			c0,7.4-0.6,13.2-2.2,17.4c-1.6,4.2-3.6,7.5-6.3,9.9c-2.8,2.3-5.8,3.4-9.1,3.4c-5.2,0-9.6-2.5-12.8-7.7
			C293.6,305.8,291.9,298.3,291.9,288.6z M298.5,288.6c0,7.4,1.1,12.8,3.2,16.5c2,3.7,4.8,5.5,8,5.5s5.8-1.9,8-5.5
			c2-3.7,3.2-9.3,3.2-16.7c0-7.1-1.1-12.4-3.2-16.1c-2-3.7-4.8-5.5-7.9-5.5c-3.2,0-5.8,1.9-8,5.5
			C299.6,275.8,298.5,281.3,298.5,288.6z"/>
		<path d="M359.4,317.3v-8.4c-2.9,6.5-7,9.8-11.9,9.8c-2.3,0-4.3-0.6-6.2-1.9c-1.9-1.3-3.4-2.9-4.3-4.8c-0.9-1.9-1.6-4.3-2-7.2
			c-0.3-1.9-0.4-4.9-0.4-9v-35.5h6.5V292c0,5.1,0.1,8.5,0.4,10.3c0.4,2.5,1.3,4.6,2.5,6.1s2.9,2.2,4.8,2.2s3.7-0.8,5.5-2.3
			c1.6-1.5,2.9-3.6,3.6-6.1c0.6-2.5,1.1-6.3,1.1-11.2v-30.9h6.5v57.2H359.4z"/>
	</g>
	<g enable-background="new    ">
		<path d="M244.9,430.2v-65.3h-17.1v-8.8H269v8.8h-17.2v65.3H244.9L244.9,430.2z"/>
		<path d="M297.3,430.2v-7.9c-2.9,6.1-7,9.1-11.9,9.1c-2.3,0-4.3-0.6-6.2-1.9c-1.9-1.3-3.4-2.7-4.3-4.6s-1.6-4.1-2-6.7
			c-0.3-1.8-0.4-4.7-0.4-8.5v-33.2h6.5v29.7c0,4.7,0.1,8,0.4,9.6c0.4,2.4,1.3,4.2,2.5,5.6c1.3,1.4,2.9,2,4.8,2s3.7-0.6,5.5-2
			c1.6-1.4,2.9-3.3,3.6-5.7c0.6-2.4,1.1-5.8,1.1-10.5v-28.8h6.5V430L297.3,430.2L297.3,430.2z"/>
		<path d="M318.9,430.2h-6v-73.9h6.5v26.4c2.7-4.8,6.2-7.2,10.4-7.2c2.3,0,4.4,0.6,6.6,2s3.8,3.2,5.1,5.6c1.3,2.4,2.4,5.3,3.2,8.8
			c0.8,3.4,1.1,7,1.1,10.9c0,9.1-1.6,16.2-4.8,21.3c-3.2,5.1-7,7.5-11.5,7.5c-4.4,0-8-2.7-10.5-8L318.9,430.2L318.9,430.2z
			 M318.7,402.9c0,6.5,0.6,11,1.9,14c2,4.7,4.7,7,8.2,7c2.8,0,5.2-1.6,7.2-5.2c2-3.4,3-8.6,3-15.5c0-7-1-12.2-2.9-15.5
			s-4.3-5.1-7.1-5.1s-5.2,1.6-7.2,5.2C319.7,391.5,318.7,396.4,318.7,402.9z"/>
		<path d="M379.2,412.8l6.6,1.1c-1,5.5-2.9,9.8-5.8,12.7c-2.8,3-6.5,4.6-10.8,4.6c-5.5,0-9.9-2.4-13.2-7.2
			c-3.3-4.8-4.8-11.5-4.8-20.3c0-9,1.6-16,4.8-21.1c3.3-4.9,7.5-7.5,12.7-7.5c5.1,0,9.1,2.4,12.3,7.4c3.2,4.8,4.8,11.8,4.8,20.7
			c0,0.5,0,1.3,0,2.4h-28.2c0.3,5.8,1.4,10.4,3.6,13.6c2,3.2,4.7,4.7,7.9,4.7c2.3,0,4.3-0.9,6.1-2.7
			C376.9,419.5,378.2,416.7,379.2,412.8z M358.3,398.2h21.1c-0.3-4.4-1.1-7.9-2.4-10.1c-2-3.4-4.7-5.2-8-5.2c-2.9,0-5.5,1.4-7.4,4.2
			C359.6,389.7,358.4,393.5,358.3,398.2z"/>
	</g>
	<path fill="none" stroke="#000000" stroke-width="4" stroke-miterlimit="10" d="M383.2,472H230.5c-13.2,0-23.7-10.7-23.7-23.7V357
		c0-13.2,10.7-23.7,23.7-23.7h152.6c13.2,0,23.7,10.7,23.7,23.7v91.3C406.9,461.3,396.3,472,383.2,472z"/>
</g>
</svg>
